<svg width="21" height="21" viewBox="0 0 21 21" fill="none" xmlns="http://www.w3.org/2000/svg">
<path d="M10.4991 6.45486C9.42606 6.45486 8.39694 6.88114 7.63817 7.63991C6.8794 8.39868 6.45313 9.4278 6.45312 10.5009C6.45313 11.5739 6.8794 12.603 7.63817 13.3618C8.39694 14.1206 9.42606 14.5469 10.4991 14.5469C11.5722 14.5469 12.6013 14.1206 13.3601 13.3618C14.1189 12.603 14.5451 11.5739 14.5451 10.5009C14.5451 9.4278 14.1189 8.39868 13.3601 7.63991C12.6013 6.88114 11.5722 6.45486 10.4991 6.45486V6.45486ZM10.4991 13.1285C9.802 13.1285 9.13343 12.8516 8.64049 12.3586C8.14756 11.8657 7.87062 11.1971 7.87062 10.5C7.87062 9.80287 8.14756 9.1343 8.64049 8.64136C9.13343 8.14842 9.802 7.87149 10.4991 7.87149C11.1962 7.87149 11.8648 8.14842 12.3578 8.64136C12.8507 9.1343 13.1276 9.80287 13.1276 10.5C13.1276 11.1971 12.8507 11.8657 12.3578 12.3586C11.8648 12.8516 11.1962 13.1285 10.4991 13.1285V13.1285Z" fill="#1565C0"/>
<path d="M14.7055 7.24938C15.2264 7.24938 15.6487 6.82708 15.6487 6.30613C15.6487 5.78519 15.2264 5.36288 14.7055 5.36288C14.1845 5.36288 13.7622 5.78519 13.7622 6.30613C13.7622 6.82708 14.1845 7.24938 14.7055 7.24938Z" fill="#1565C0"/>
<path d="M17.9666 5.34711C17.764 4.82402 17.4545 4.34899 17.0577 3.95242C16.661 3.55584 16.1859 3.24648 15.6627 3.04411C15.0505 2.8143 14.4037 2.69004 13.75 2.67661C12.9073 2.63986 12.6405 2.62936 10.5037 2.62936C8.36695 2.62936 8.09308 2.62936 7.25745 2.67661C6.60417 2.68935 5.95787 2.81364 5.34645 3.04411C4.82315 3.24624 4.34787 3.55553 3.95112 3.95213C3.55437 4.34873 3.2449 4.82388 3.04258 5.34711C2.81272 5.95927 2.68874 6.6061 2.67595 7.25986C2.63833 8.10161 2.62695 8.36849 2.62695 10.5061C2.62695 12.6429 2.62695 12.915 2.67595 13.7524C2.68908 14.4069 2.81245 15.0526 3.04258 15.666C3.24547 16.189 3.55524 16.664 3.95208 17.0605C4.34893 17.4571 4.82413 17.7665 5.34733 17.969C5.95758 18.208 6.60415 18.3412 7.2592 18.3627C8.10183 18.3995 8.3687 18.4109 10.5055 18.4109C12.6422 18.4109 12.9161 18.4109 13.7517 18.3627C14.4054 18.3494 15.0522 18.2255 15.6645 17.9961C16.1875 17.7933 16.6625 17.4836 17.0592 17.087C17.4559 16.6903 17.7655 16.2153 17.9683 15.6922C18.1985 15.0797 18.3218 14.434 18.335 13.7795C18.3726 12.9377 18.384 12.6709 18.384 10.5332C18.384 8.39561 18.384 8.12436 18.335 7.28699C18.3248 6.62398 18.2001 5.96771 17.9666 5.34711V5.34711ZM16.9008 13.6876C16.8952 14.1919 16.8031 14.6914 16.6287 15.1646C16.4973 15.5049 16.2961 15.8139 16.0381 16.0717C15.7801 16.3295 15.471 16.5305 15.1307 16.6617C14.6628 16.8354 14.1685 16.9274 13.6695 16.9339C12.8382 16.9724 12.6037 16.982 10.4722 16.982C8.33895 16.982 8.12108 16.982 7.27408 16.9339C6.77526 16.9278 6.28124 16.8357 5.8137 16.6617C5.47218 16.5313 5.16183 16.3307 4.90273 16.0728C4.64363 15.8149 4.44156 15.5055 4.30958 15.1646C4.13759 14.6965 4.0456 14.2028 4.03745 13.7042C3.99983 12.873 3.99108 12.6385 3.99108 10.507C3.99108 8.37461 3.99108 8.15674 4.03745 7.30886C4.04311 6.80488 4.13515 6.30561 4.30958 5.83274C4.57645 5.14236 5.12333 4.59899 5.8137 4.33474C6.28147 4.16161 6.77535 4.06958 7.27408 4.06261C8.1062 4.02499 8.33983 4.01449 10.4722 4.01449C12.6046 4.01449 12.8233 4.01449 13.6695 4.06261C14.1686 4.06862 14.6629 4.16068 15.1307 4.33474C15.471 4.46623 15.7801 4.66742 16.0381 4.92539C16.296 5.18336 16.4972 5.49243 16.6287 5.83274C16.8007 6.30082 16.8927 6.7945 16.9008 7.29311C16.9385 8.12524 16.9481 8.35886 16.9481 10.4912C16.9481 12.6227 16.9481 12.852 16.9105 13.6885H16.9008V13.6876Z" fill="#1565C0"/>
</svg>
