<svg width="31" height="31" viewBox="0 0 31 31" fill="none" xmlns="http://www.w3.org/2000/svg">
<rect width="31" height="31" rx="8" fill="white"/>
<path d="M15.4991 11.4549C14.4261 11.4549 13.3969 11.8811 12.6382 12.6399C11.8794 13.3987 11.4531 14.4278 11.4531 15.5009C11.4531 16.5739 11.8794 17.603 12.6382 18.3618C13.3969 19.1206 14.4261 19.5469 15.4991 19.5469C16.5722 19.5469 17.6013 19.1206 18.3601 18.3618C19.1189 17.603 19.5451 16.5739 19.5451 15.5009C19.5451 14.4278 19.1189 13.3987 18.3601 12.6399C17.6013 11.8811 16.5722 11.4549 15.4991 11.4549V11.4549ZM15.4991 18.1285C14.802 18.1285 14.1334 17.8516 13.6405 17.3586C13.1476 16.8657 12.8706 16.1971 12.8706 15.5C12.8706 14.8029 13.1476 14.1343 13.6405 13.6414C14.1334 13.1484 14.802 12.8715 15.4991 12.8715C16.1962 12.8715 16.8648 13.1484 17.3578 13.6414C17.8507 14.1343 18.1276 14.8029 18.1276 15.5C18.1276 16.1971 17.8507 16.8657 17.3578 17.3586C16.8648 17.8516 16.1962 18.1285 15.4991 18.1285V18.1285Z" fill="#1565C0"/>
<path d="M19.7055 12.2494C20.2264 12.2494 20.6487 11.8271 20.6487 11.3061C20.6487 10.7852 20.2264 10.3629 19.7055 10.3629C19.1845 10.3629 18.7622 10.7852 18.7622 11.3061C18.7622 11.8271 19.1845 12.2494 19.7055 12.2494Z" fill="#1565C0"/>
<path d="M22.9666 10.3471C22.764 9.82402 22.4545 9.34899 22.0577 8.95242C21.661 8.55584 21.1859 8.24648 20.6627 8.04411C20.0505 7.8143 19.4037 7.69004 18.75 7.67661C17.9073 7.63986 17.6405 7.62936 15.5037 7.62936C13.367 7.62936 13.0931 7.62936 12.2575 7.67661C11.6042 7.68935 10.9579 7.81364 10.3465 8.04411C9.82315 8.24624 9.34787 8.55553 8.95112 8.95213C8.55437 9.34873 8.2449 9.82388 8.04258 10.3471C7.81272 10.9593 7.68874 11.6061 7.67595 12.2599C7.63833 13.1016 7.62695 13.3685 7.62695 15.5061C7.62695 17.6429 7.62695 17.915 7.67595 18.7524C7.68908 19.4069 7.81245 20.0526 8.04258 20.666C8.24547 21.189 8.55524 21.664 8.95208 22.0605C9.34893 22.4571 9.82413 22.7665 10.3473 22.969C10.9576 23.208 11.6042 23.3412 12.2592 23.3627C13.1018 23.3995 13.3687 23.4109 15.5055 23.4109C17.6422 23.4109 17.9161 23.4109 18.7517 23.3627C19.4054 23.3494 20.0522 23.2255 20.6645 22.9961C21.1875 22.7933 21.6625 22.4836 22.0592 22.087C22.4559 21.6903 22.7655 21.2153 22.9683 20.6922C23.1985 20.0797 23.3218 19.434 23.335 18.7795C23.3726 17.9377 23.384 17.6709 23.384 15.5332C23.384 13.3956 23.384 13.1244 23.335 12.287C23.3248 11.624 23.2001 10.9677 22.9666 10.3471V10.3471ZM21.9008 18.6876C21.8952 19.1919 21.8031 19.6914 21.6287 20.1646C21.4973 20.5049 21.2961 20.8139 21.0381 21.0717C20.7801 21.3295 20.471 21.5305 20.1307 21.6617C19.6628 21.8354 19.1685 21.9274 18.6695 21.9339C17.8382 21.9724 17.6037 21.982 15.4722 21.982C13.339 21.982 13.1211 21.982 12.2741 21.9339C11.7753 21.9278 11.2812 21.8357 10.8137 21.6617C10.4722 21.5313 10.1618 21.3307 9.90273 21.0728C9.64363 20.8149 9.44156 20.5055 9.30958 20.1646C9.13759 19.6965 9.0456 19.2028 9.03745 18.7042C8.99983 17.873 8.99108 17.6385 8.99108 15.507C8.99108 13.3746 8.99108 13.1567 9.03745 12.3089C9.04311 11.8049 9.13515 11.3056 9.30958 10.8327C9.57645 10.1424 10.1233 9.59899 10.8137 9.33474C11.2815 9.16161 11.7754 9.06958 12.2741 9.06261C13.1062 9.02499 13.3398 9.01449 15.4722 9.01449C17.6046 9.01449 17.8233 9.01449 18.6695 9.06261C19.1686 9.06862 19.6629 9.16068 20.1307 9.33474C20.471 9.46623 20.7801 9.66742 21.0381 9.92539C21.296 10.1834 21.4972 10.4924 21.6287 10.8327C21.8007 11.3008 21.8927 11.7945 21.9008 12.2931C21.9385 13.1252 21.9481 13.3589 21.9481 15.4912C21.9481 17.6227 21.9481 17.852 21.9105 18.6885H21.9008V18.6876Z" fill="#1565C0"/>
</svg>
