<svg width="31" height="31" viewBox="0 0 31 31" fill="none" xmlns="http://www.w3.org/2000/svg">
<rect width="31" height="31" rx="8" fill="white"/>
<path d="M15.4991 11.4548C14.4261 11.4548 13.3969 11.8811 12.6382 12.6399C11.8794 13.3987 11.4531 14.4278 11.4531 15.5008C11.4531 16.5739 11.8794 17.603 12.6382 18.3618C13.3969 19.1206 14.4261 19.5468 15.4991 19.5468C16.5722 19.5468 17.6013 19.1206 18.3601 18.3618C19.1189 17.603 19.5451 16.5739 19.5451 15.5008C19.5451 14.4278 19.1189 13.3987 18.3601 12.6399C17.6013 11.8811 16.5722 11.4548 15.4991 11.4548ZM15.4991 18.1285C14.802 18.1285 14.1334 17.8515 13.6405 17.3586C13.1476 16.8657 12.8706 16.1971 12.8706 15.5C12.8706 14.8028 13.1476 14.1343 13.6405 13.6413C14.1334 13.1484 14.802 12.8715 15.4991 12.8715C16.1962 12.8715 16.8648 13.1484 17.3578 13.6413C17.8507 14.1343 18.1276 14.8028 18.1276 15.5C18.1276 16.1971 17.8507 16.8657 17.3578 17.3586C16.8648 17.8515 16.1962 18.1285 15.4991 18.1285Z" fill="#1565C0"/>
<path d="M19.7052 12.2494C20.2262 12.2494 20.6485 11.8271 20.6485 11.3062C20.6485 10.7852 20.2262 10.3629 19.7052 10.3629C19.1843 10.3629 18.762 10.7852 18.762 11.3062C18.762 11.8271 19.1843 12.2494 19.7052 12.2494Z" fill="#1565C0"/>
<path d="M22.9663 10.3471C22.7638 9.82405 22.4542 9.34902 22.0575 8.95245C21.6608 8.55588 21.1856 8.24651 20.6625 8.04414C20.0503 7.81433 19.4035 7.69007 18.7497 7.67664C17.9071 7.63989 17.6402 7.62939 15.5035 7.62939C13.3667 7.62939 13.0928 7.62939 12.2572 7.67664C11.6039 7.68938 10.9576 7.81367 10.3462 8.04414C9.8229 8.24627 9.34763 8.55556 8.95088 8.95216C8.55412 9.34876 8.24466 9.82392 8.04233 10.3471C7.81248 10.9593 7.6885 11.6061 7.67571 12.2599C7.63808 13.1016 7.62671 13.3685 7.62671 15.5061C7.62671 17.6429 7.62671 17.915 7.67571 18.7524C7.68883 19.4069 7.81221 20.0526 8.04233 20.666C8.24523 21.1891 8.55499 21.664 8.95184 22.0606C9.34869 22.4571 9.82389 22.7665 10.3471 22.969C10.9573 23.2081 11.6039 23.3412 12.259 23.3628C13.1016 23.3995 13.3685 23.4109 15.5052 23.4109C17.642 23.4109 17.9158 23.4109 18.7515 23.3628C19.4052 23.3495 20.0519 23.2255 20.6642 22.9961C21.1872 22.7933 21.6623 22.4837 22.0589 22.087C22.4556 21.6903 22.7652 21.2153 22.9681 20.6923C23.1982 20.0798 23.3216 19.434 23.3347 18.7795C23.3723 17.9378 23.3837 17.6709 23.3837 15.5333C23.3837 13.3956 23.3837 13.1244 23.3347 12.287C23.3245 11.624 23.1999 10.9677 22.9663 10.3471ZM21.9006 18.6876C21.8949 19.1919 21.8029 19.6915 21.6285 20.1646C21.4971 20.5049 21.2959 20.8139 21.0379 21.0717C20.7799 21.3296 20.4708 21.5306 20.1305 21.6618C19.6625 21.8354 19.1683 21.9275 18.6692 21.9339C17.838 21.9724 17.6035 21.982 15.472 21.982C13.3387 21.982 13.1208 21.982 12.2738 21.9339C11.775 21.9278 11.281 21.8357 10.8135 21.6618C10.4719 21.5314 10.1616 21.3308 9.90249 21.0729C9.64339 20.815 9.44131 20.5056 9.30933 20.1646C9.13735 19.6966 9.04536 19.2029 9.03721 18.7043C8.99958 17.873 8.99083 17.6385 8.99083 15.507C8.99083 13.3746 8.99083 13.1568 9.03721 12.3089C9.04286 11.8049 9.13491 11.3056 9.30933 10.8328C9.57621 10.1424 10.1231 9.59902 10.8135 9.33477C11.2812 9.16164 11.7751 9.06961 12.2738 9.06264C13.106 9.02502 13.3396 9.01452 15.472 9.01452C17.6043 9.01452 17.8231 9.01452 18.6692 9.06264C19.1683 9.06865 19.6626 9.16071 20.1305 9.33477C20.4708 9.46626 20.7798 9.66745 21.0378 9.92542C21.2958 10.1834 21.497 10.4925 21.6285 10.8328C21.8004 11.3008 21.8924 11.7945 21.9006 12.2931C21.9382 13.1253 21.9478 13.3589 21.9478 15.4913C21.9478 17.6228 21.9478 17.852 21.9102 18.6885H21.9006V18.6876Z" fill="#1565C0"/>
</svg>
